<svg xmlns="http://www.w3.org/2000/svg" version="1.1" xmlns:xlink="http://www.w3.org/1999/xlink" xmlns:svgjs="http://svgjs.com/svgjs" width="1440" height="560" preserveAspectRatio="none" viewBox="0 0 1440 560"><g mask="url(&quot;#SvgjsMask1010&quot;)" fill="none"><rect width="1440" height="560" x="0" y="0" fill="rgba(245, 196, 176, 1)"></rect><path d="M1464 560L0 560 L0 368.05Q32.19 328.25, 72 360.44Q99.64 268.07, 192 295.71Q241.74 273.45, 264 323.19Q309.16 296.35, 336 341.5Q377.96 263.46, 456 305.42Q485.23 262.65, 528 291.88Q609.41 253.29, 648 334.7Q681.47 248.17, 768 281.65Q815.75 257.4, 840 305.15Q892.47 285.62, 912 338.09Q938.09 292.18, 984 318.27Q1005.2 267.47, 1056 288.67Q1146.86 259.53, 1176 350.39Q1220.9 323.29, 1248 368.2Q1256.9 305.11, 1320 314.01Q1340.35 262.36, 1392 282.71Q1436.88 255.59, 1464 300.47z" fill="rgba(143, 149, 185, 1)"></path><path d="M1536 560L0 560 L0 374.66Q28.91 331.57, 72 360.47Q129.69 346.16, 144 403.85Q216.95 356.8, 264 429.75Q301.16 346.91, 384 384.07Q409.21 337.28, 456 362.5Q547.18 333.68, 576 424.86Q606.2 383.06, 648 413.27Q678.42 371.69, 720 402.12Q770.27 332.39, 840 382.66Q870.42 341.08, 912 371.5Q937.55 325.05, 984 350.6Q1036.05 330.65, 1056 382.71Q1144.8 351.51, 1176 440.31Q1220.26 364.57, 1296 408.83Q1343.36 336.19, 1416 383.55Q1481.14 328.69, 1536 393.84z" fill="rgba(158, 194, 203, 1)"></path><path d="M1488 560L0 560 L0 505.3Q37.68 470.98, 72 508.65Q105.06 421.71, 192 454.76Q238 428.76, 264 474.76Q342.02 432.78, 384 510.81Q411.31 418.13, 504 445.44Q552.63 374.06, 624 422.69Q678.13 404.81, 696 458.94Q771.4 414.34, 816 489.74Q818.82 420.56, 888 423.39Q930.13 393.51, 960 435.64Q1051.74 407.38, 1080 499.12Q1126.88 426, 1200 472.87Q1220.4 421.27, 1272 441.67Q1298.36 396.02, 1344 422.38Q1426.85 433.23, 1416 516.07Q1414.95 443.03, 1488 441.98z" fill="rgba(239, 214, 175, 1)"></path><path d="M1560 560L0 560 L0 558.5Q2.37 488.88, 72 491.25Q114.36 461.61, 144 503.96Q190.99 478.95, 216 525.94Q289.57 479.51, 336 553.08Q406.33 503.41, 456 573.75Q485.93 483.68, 576 513.62Q649.4 467.02, 696 540.42Q771.19 495.61, 816 570.8Q838.31 473.11, 936 495.42Q978.16 465.59, 1008 507.75Q1101.81 481.56, 1128 575.37Q1178.61 505.98, 1248 556.59Q1260.74 497.33, 1320 510.07Q1389.76 459.83, 1440 529.59Q1524.9 494.49, 1560 579.39z" fill="rgba(253, 250, 235, 1)"></path></g><defs><mask id="SvgjsMask1010"><rect width="1440" height="560" fill="#ffffff"></rect></mask></defs></svg>